<?xml version="1.0" encoding="utf-8"?>
<!-- Generator: Adobe Illustrator 17.0.2, SVG Export Plug-In . SVG Version: 6.00 Build 0)  -->
<!DOCTYPE svg PUBLIC "-//W3C//DTD SVG 1.1//EN" "http://www.w3.org/Graphics/SVG/1.1/DTD/svg11.dtd">
<svg version="1.1" id="Calque_1" xmlns="http://www.w3.org/2000/svg" xmlns:xlink="http://www.w3.org/1999/xlink" x="0px" y="0px"
	 width="100px" height="100px" viewBox="0 0 100 100" enable-background="new 0 0 100 100" xml:space="preserve">
<path fill="#FFFFFF" d="M58.521,15.218v17.304c-0.15,0.752-0.598,1.348-1.345,1.798H8.294c-1.047-0.147-1.647-0.749-1.794-1.798
	V15.218c0.298-1.046,0.897-1.647,1.794-1.798h48.881C57.922,13.723,58.371,14.319,58.521,15.218z M93.5,41.96v17.304
	c-0.302,1.049-0.897,1.651-1.794,1.798H8.294c-1.047-0.299-1.647-0.899-1.794-1.798V41.96c0.147-0.899,0.747-1.495,1.794-1.798
	h83.412C92.75,40.313,93.35,40.914,93.5,41.96z M69.956,68.478v17.304c-0.15,1.049-0.75,1.651-1.794,1.798H8.294
	C7.247,87.28,6.647,86.681,6.5,85.782V68.478c0.147-0.899,0.747-1.496,1.794-1.798h59.869
	C69.059,66.831,69.655,67.432,69.956,68.478z"/>
</svg>
